<svg xmlns="http://www.w3.org/2000/svg" xmlns:xlink="http://www.w3.org/1999/xlink" width="500" zoomAndPan="magnify" viewBox="0 0 375 374.999991" height="500" preserveAspectRatio="xMidYMid meet" version="1.0"><defs><g/><clipPath id="2328cf3ecb"><path d="M 56.488281 151.464844 L 318.238281 151.464844 L 318.238281 223.464844 L 56.488281 223.464844 Z M 56.488281 151.464844 " clip-rule="nonzero"/></clipPath><clipPath id="499e8cb7fa"><path d="M 63.558594 158.238281 L 187.332031 158.238281 L 187.332031 216.761719 L 63.558594 216.761719 Z M 63.558594 158.238281 " clip-rule="nonzero"/></clipPath><clipPath id="410a3a4fde"><path d="M 102.003906 103.289062 L 273 103.289062 L 273 272.039062 L 102.003906 272.039062 Z M 102.003906 103.289062 " clip-rule="nonzero"/></clipPath></defs><g clip-path="url(#2328cf3ecb)"><path stroke-linecap="butt" transform="matrix(0.750202, 0, 0, 0.749268, 56.489269, 151.465449)" fill="none" stroke-linejoin="miter" d="M -0.00131637 -0.000808127 L 348.904932 -0.000808127 L 348.904932 96.092952 L -0.00131637 96.092952 L -0.00131637 -0.000808127 " stroke="#000000" stroke-width="6" stroke-opacity="1" stroke-miterlimit="4"/></g><g clip-path="url(#499e8cb7fa)"><path fill="#000000" d="M 63.558594 158.238281 L 187.515625 158.238281 L 187.515625 216.84375 L 63.558594 216.84375 Z M 63.558594 158.238281 " fill-opacity="1" fill-rule="nonzero"/></g><g clip-path="url(#410a3a4fde)"><path fill="#000000" d="M 187.546875 103.320312 C 184.445312 103.320312 181.386719 103.496094 178.371094 103.8125 C 170.464844 104.453125 163.3125 105.917969 158.484375 108.109375 L 158.464844 108.117188 L 158.453125 108.117188 C 158.242188 108.257812 158.097656 108.382812 157.890625 108.523438 C 155.265625 109.273438 152.84375 110.304688 150.628906 111.59375 C 122.128906 125.117188 102.390625 153.808594 102.132812 187.066406 L 102.101562 187.15625 L 102.101562 187.203125 C 102.101562 187.308594 102.121094 187.40625 102.121094 187.511719 C 102.121094 187.578125 102.113281 187.648438 102.113281 187.71875 C 102.113281 204.097656 106.859375 219.378906 115.042969 232.324219 C 115.78125 234.101562 116.960938 235.800781 118.53125 237.429688 C 129.882812 252.777344 146.347656 264.195312 165.441406 269.242188 C 172.496094 271.109375 179.898438 272.117188 187.546875 272.117188 C 190.144531 272.117188 192.710938 271.984375 195.25 271.761719 C 195.335938 271.753906 195.425781 271.757812 195.507812 271.742188 C 198.335938 271.480469 201.121094 271.089844 203.863281 270.566406 C 210.074219 269.59375 215.792969 268.003906 220.234375 265.699219 C 230.75 261.386719 240.207031 255.066406 248.113281 247.214844 L 248.183594 247.148438 C 252.386719 243.230469 256.007812 238.78125 259.011719 233.9375 C 267.835938 220.65625 272.976562 204.78125 272.976562 187.71875 C 272.976562 169.417969 267.0625 152.488281 257.03125 138.660156 L 256.679688 138.175781 C 247.324219 125.464844 234.480469 115.4375 219.535156 109.460938 C 219.527344 109.457031 219.515625 109.457031 219.503906 109.453125 C 213.867188 106.542969 206.195312 104.789062 198.0625 103.980469 C 194.613281 103.5625 191.109375 103.320312 187.546875 103.320312 Z M 185.820312 103.84375 C 187.355469 103.820312 188.902344 103.828125 190.445312 103.871094 C 192.6875 103.933594 194.914062 104.085938 197.125 104.285156 C 197.503906 104.328125 197.878906 104.386719 198.257812 104.433594 C 195.492188 104.734375 192.339844 106.390625 188.828125 109.382812 C 188.804688 109.386719 188.78125 109.386719 188.757812 109.390625 C 188.457031 109.304688 188.171875 109.207031 187.871094 109.125 L 187.824219 109.105469 L 187.773438 109.113281 L 186.925781 109.300781 C 185.703125 107.714844 184.527344 106.394531 183.445312 105.589844 C 182.3125 104.746094 181.238281 104.308594 180.242188 104.277344 C 179.910156 104.265625 179.582031 104.300781 179.269531 104.375 C 178.007812 104.683594 176.921875 105.671875 175.988281 107.210938 C 175.925781 107.308594 175.878906 107.460938 175.820312 107.566406 C 173.339844 107.234375 170.941406 107.027344 168.683594 107.03125 C 166.300781 107.035156 164.082031 107.273438 161.941406 107.625 C 167.34375 105.941406 172.96875 104.777344 178.777344 104.1875 L 178.84375 104.179688 C 181.128906 104.003906 183.453125 103.875 185.820312 103.84375 Z M 180.234375 104.671875 C 181.132812 104.703125 182.121094 105.09375 183.210938 105.90625 C 184.21875 106.65625 185.34375 107.90625 186.511719 109.402344 C 186.207031 109.46875 185.910156 109.539062 185.605469 109.609375 C 182.316406 108.691406 179.195312 108.027344 176.234375 107.613281 C 176.265625 107.558594 176.289062 107.472656 176.320312 107.417969 C 177.226562 105.933594 178.246094 105.035156 179.367188 104.761719 C 179.648438 104.691406 179.933594 104.660156 180.234375 104.671875 Z M 199.382812 104.761719 C 199.855469 104.769531 200.308594 104.824219 200.753906 104.910156 C 202.65625 105.277344 204.34375 106.375 205.828125 108.078125 C 205.429688 108.0625 205.066406 108.015625 204.664062 108.007812 C 200.035156 107.921875 195 108.34375 189.585938 109.253906 C 193.324219 106.1875 196.597656 104.714844 199.382812 104.761719 Z M 202.496094 105.066406 C 208.378906 106.097656 214.050781 107.714844 219.449219 109.875 C 219.859375 110.089844 220.210938 110.339844 220.601562 110.566406 C 216.363281 109.167969 211.59375 108.355469 206.359375 108.117188 C 205.207031 106.722656 203.921875 105.683594 202.496094 105.066406 Z M 164.515625 106.449219 C 164.183594 106.539062 163.851562 106.628906 163.519531 106.726562 C 163.847656 106.632812 164.179688 106.539062 164.515625 106.449219 Z M 168.695312 107.417969 C 170.890625 107.414062 173.226562 107.621094 175.644531 107.941406 C 175.195312 108.777344 174.78125 109.742188 174.402344 110.84375 C 164.671875 112.039062 156.160156 114.101562 148.75 116.875 C 150.675781 114.460938 153.742188 111.816406 157.953125 108.976562 C 158.25 108.867188 158.550781 108.757812 158.847656 108.652344 C 161.863281 107.871094 165.117188 107.417969 168.695312 107.417969 Z M 176.046875 107.988281 C 178.808594 108.371094 181.722656 108.972656 184.777344 109.796875 L 183.949219 109.984375 C 180.8125 110.175781 177.757812 110.433594 174.835938 110.785156 C 175.210938 109.71875 175.613281 108.789062 176.046875 107.988281 Z M 204.65625 108.394531 C 205.175781 108.402344 205.652344 108.472656 206.164062 108.492188 C 206.921875 109.433594 207.601562 110.613281 208.253906 111.878906 C 202.828125 110.929688 196.988281 110.285156 190.710938 109.964844 C 190.34375 109.855469 189.976562 109.746094 189.605469 109.636719 C 195.015625 108.726562 200.042969 108.308594 204.65625 108.394531 Z M 206.695312 108.523438 C 212.574219 108.820312 217.789062 109.90625 222.382812 111.671875 C 224.679688 113.59375 226.378906 115.402344 227.585938 117.101562 C 221.972656 114.9375 215.699219 113.203125 208.734375 111.957031 C 208.101562 110.691406 207.441406 109.492188 206.695312 108.523438 Z M 187.824219 109.519531 C 187.84375 109.523438 187.863281 109.535156 187.882812 109.539062 L 187.417969 109.617188 C 187.558594 109.589844 187.6875 109.546875 187.824219 109.519531 Z M 156.445312 109.570312 C 152.636719 112.269531 149.8125 114.800781 148.070312 117.140625 C 145.914062 117.96875 143.828125 118.839844 141.859375 119.789062 C 144.242188 116.742188 147.066406 114.1875 150.347656 112.195312 C 152.332031 111.238281 154.375 110.375 156.445312 109.570312 Z M 186.777344 109.757812 C 186.792969 109.777344 186.8125 109.796875 186.828125 109.816406 C 186.703125 109.820312 186.585938 109.839844 186.464844 109.84375 L 186.445312 109.835938 Z M 188.898438 109.835938 L 189.054688 109.886719 L 188.847656 109.875 Z M 187.726562 110.21875 L 187.832031 110.230469 C 187.820312 110.242188 187.808594 110.25 187.792969 110.261719 Z M 188.40625 110.25 C 189.160156 110.277344 189.898438 110.320312 190.640625 110.359375 C 197.832031 112.492188 204.484375 114.964844 210.609375 117.742188 C 210.851562 118.550781 211.058594 119.445312 211.277344 120.3125 C 207.742188 119.859375 204.144531 119.527344 200.507812 119.324219 C 196.648438 116.195312 192.527344 113.238281 188.128906 110.488281 Z M 185.980469 110.261719 C 181.410156 112.507812 177.109375 114.992188 173.070312 117.675781 C 173.339844 116.175781 173.648438 114.777344 173.976562 113.507812 C 174.023438 113.332031 174.078125 113.203125 174.125 113.035156 C 177.328125 112.066406 180.648438 111.183594 184.089844 110.378906 C 184.71875 110.339844 185.339844 110.292969 185.980469 110.261719 Z M 186.71875 110.320312 C 186.925781 110.378906 187.121094 110.421875 187.332031 110.488281 L 187.398438 110.585938 C 187.339844 110.640625 187.292969 110.679688 187.230469 110.734375 L 187.222656 110.734375 L 187.210938 110.742188 C 185 113.242188 182.941406 116.144531 181.003906 119.324219 C 178.222656 119.472656 175.464844 119.695312 172.734375 119.964844 C 172.824219 119.378906 172.894531 118.757812 172.992188 118.199219 C 177.273438 115.335938 181.839844 112.6875 186.71875 110.320312 Z M 192.308594 110.4375 C 198.070312 110.789062 203.449219 111.425781 208.46875 112.3125 C 208.726562 112.835938 209.007812 113.292969 209.25 113.863281 C 209.679688 114.894531 210.058594 116.050781 210.429688 117.230469 C 204.828125 114.703125 198.792969 112.429688 192.308594 110.4375 Z M 181.675781 110.515625 C 179.132812 111.148438 176.679688 111.84375 174.273438 112.570312 C 174.410156 112.089844 174.558594 111.636719 174.707031 111.199219 C 176.964844 110.925781 179.28125 110.695312 181.675781 110.515625 Z M 187.644531 110.902344 C 187.78125 111.097656 187.902344 111.21875 188.039062 111.425781 L 188.050781 111.445312 C 188.902344 113.890625 189.710938 116.453125 190.492188 119.058594 C 189.828125 119.058594 189.160156 119.046875 188.492188 119.058594 C 186.46875 119.082031 184.4375 119.140625 182.421875 119.234375 C 182.117188 119.25 181.8125 119.277344 181.507812 119.292969 C 183.382812 116.238281 185.367188 113.429688 187.5 111.019531 C 187.546875 110.972656 187.597656 110.949219 187.644531 110.902344 Z M 188.199219 110.980469 C 192.316406 113.574219 196.1875 116.359375 199.828125 119.285156 C 196.863281 119.128906 193.882812 119.058594 190.898438 119.058594 C 190.101562 116.398438 189.285156 113.792969 188.414062 111.296875 L 188.40625 111.277344 L 188.394531 111.246094 C 188.324219 111.144531 188.265625 111.082031 188.199219 110.980469 Z M 222.109375 111 C 222.984375 111.386719 223.859375 111.769531 224.71875 112.183594 C 224.039062 111.878906 223.320312 111.621094 222.613281 111.347656 L 222.453125 111.207031 L 222.445312 111.199219 C 222.339844 111.128906 222.214844 111.070312 222.109375 111 Z M 174.261719 111.257812 C 174.109375 111.730469 173.953125 112.195312 173.808594 112.707031 C 163.296875 115.910156 154.0625 119.976562 146.050781 124.703125 C 145.851562 123.601562 145.910156 122.4375 146.304688 121.191406 C 146.675781 120.015625 147.367188 118.769531 148.335938 117.457031 C 155.792969 114.609375 164.398438 112.480469 174.261719 111.257812 Z M 223.460938 112.097656 C 228.832031 114.332031 233.332031 117.503906 237.011719 121.4375 C 234.289062 119.953125 231.371094 118.582031 228.25 117.347656 C 227.148438 115.6875 225.554688 113.941406 223.460938 112.097656 Z M 208.953125 112.394531 C 216.003906 113.671875 222.332031 115.453125 227.980469 117.675781 C 229.367188 119.796875 229.972656 121.746094 229.882812 123.511719 C 229.875 123.714844 229.824219 123.910156 229.796875 124.113281 C 229.613281 124.058594 229.4375 123.988281 229.253906 123.933594 C 226.007812 122.992188 222.621094 122.207031 219.144531 121.546875 C 216.519531 120.125 213.78125 118.757812 210.933594 117.457031 C 210.523438 116.132812 210.09375 114.863281 209.613281 113.714844 C 209.410156 113.230469 209.167969 112.84375 208.953125 112.394531 Z M 173.664062 113.183594 C 173.640625 113.265625 173.613281 113.328125 173.59375 113.410156 C 173.234375 114.789062 172.925781 116.332031 172.636719 117.972656 C 171.484375 118.746094 170.347656 119.535156 169.238281 120.339844 C 161.429688 121.269531 153.957031 122.679688 147.164062 124.496094 C 154.863281 120.058594 163.691406 116.238281 173.664062 113.183594 Z M 226.789062 113.230469 C 227.644531 113.671875 228.496094 114.125 229.332031 114.59375 C 236.953125 118.847656 243.84375 124.222656 249.773438 130.5 C 246.402344 127.390625 242.503906 124.5625 238.085938 122.046875 C 235.5625 119.1875 232.679688 116.652344 229.332031 114.59375 C 228.527344 114.097656 227.644531 113.675781 226.789062 113.230469 Z M 147.695312 113.539062 C 145.289062 115.339844 143.125 117.441406 141.269531 119.875 C 141.191406 119.980469 141.121094 120.097656 141.042969 120.203125 C 132.699219 124.34375 126.066406 129.523438 121.007812 135.457031 C 128.265625 126.464844 137.339844 118.976562 147.695312 113.539062 Z M 147.65625 117.714844 C 146.859375 118.875 146.269531 120 145.929688 121.070312 C 145.503906 122.421875 145.4375 123.707031 145.675781 124.914062 C 143.160156 125.617188 140.714844 126.359375 138.421875 127.171875 C 137.964844 127.335938 137.546875 127.511719 137.101562 127.675781 C 138.300781 125.078125 139.699219 122.679688 141.308594 120.507812 C 143.320312 119.511719 145.4375 118.582031 147.65625 117.714844 Z M 228.613281 117.910156 C 231.933594 119.246094 234.992188 120.742188 237.847656 122.363281 C 238.261719 122.839844 238.707031 123.285156 239.097656 123.777344 C 240.445312 125.460938 241.640625 127.277344 242.734375 129.175781 C 238.875 127.234375 234.667969 125.585938 230.179688 124.230469 C 230.214844 124 230.269531 123.769531 230.28125 123.53125 C 230.367188 121.792969 229.835938 119.921875 228.613281 117.910156 Z M 211.109375 117.980469 C 213.464844 119.058594 215.761719 120.171875 217.960938 121.339844 C 215.902344 120.96875 213.816406 120.648438 211.703125 120.371094 C 211.503906 119.574219 211.332031 118.726562 211.109375 117.980469 Z M 172.558594 118.496094 C 172.476562 118.976562 172.40625 119.5 172.332031 120.003906 C 171.574219 120.082031 170.808594 120.144531 170.054688 120.230469 C 170.878906 119.644531 171.710938 119.066406 172.558594 118.496094 Z M 188.492188 119.453125 C 189.199219 119.441406 189.90625 119.453125 190.613281 119.453125 C 192.359375 125.3125 193.9375 131.515625 195.34375 137.976562 C 191.957031 138.175781 188.511719 138.257812 185.085938 138.191406 C 180.9375 138.113281 176.851562 137.8125 172.941406 137.34375 C 175.355469 130.8125 178.125 124.859375 181.242188 119.707031 C 181.640625 119.6875 182.039062 119.648438 182.441406 119.628906 C 184.453125 119.535156 186.472656 119.476562 188.492188 119.453125 Z M 191.015625 119.453125 C 194.140625 119.457031 197.261719 119.535156 200.359375 119.707031 C 205.089844 123.554688 209.382812 127.667969 213.320312 131.972656 C 213.441406 133.054688 213.566406 134.132812 213.664062 135.257812 C 208.359375 136.636719 202.207031 137.558594 195.746094 137.964844 C 194.34375 131.511719 192.761719 125.3125 191.015625 119.453125 Z M 180.738281 119.738281 C 177.652344 124.882812 174.914062 130.8125 172.527344 137.292969 C 172.113281 137.242188 171.699219 137.179688 171.289062 137.125 C 171.519531 130.816406 171.964844 125.152344 172.667969 120.371094 C 175.332031 120.101562 178.023438 119.890625 180.738281 119.738281 Z M 201.039062 119.757812 C 204.535156 119.96875 207.988281 120.289062 211.386719 120.726562 C 212.164062 123.902344 212.78125 127.453125 213.242188 131.328125 C 209.507812 127.285156 205.472656 123.394531 201.039062 119.757812 Z M 172.265625 120.410156 C 171.566406 125.1875 171.113281 130.816406 170.882812 137.078125 C 164.824219 136.222656 159.371094 134.878906 155.097656 133.066406 C 159.378906 128.65625 164.152344 124.523438 169.378906 120.726562 C 170.335938 120.613281 171.296875 120.507812 172.265625 120.410156 Z M 211.8125 120.785156 C 214.25 121.105469 216.664062 121.472656 219.027344 121.921875 C 222.3125 123.703125 225.417969 125.570312 228.359375 127.527344 C 227.160156 129.160156 225.316406 130.621094 222.917969 131.894531 C 220.984375 132.914062 218.675781 133.804688 216.148438 134.578125 C 215.347656 133.644531 214.53125 132.71875 213.695312 131.804688 C 213.234375 127.777344 212.613281 124.082031 211.8125 120.785156 Z M 168.546875 120.835938 C 163.496094 124.558594 158.886719 128.601562 154.722656 132.898438 C 152.902344 132.101562 151.246094 131.246094 149.941406 130.273438 C 148.285156 129.03125 147.089844 127.65625 146.453125 126.144531 C 146.324219 125.835938 146.230469 125.511719 146.148438 125.1875 C 153.003906 123.289062 160.59375 121.816406 168.550781 120.835938 Z M 140.5625 120.882812 C 139.042969 123.023438 137.71875 125.363281 136.578125 127.882812 C 129.898438 130.417969 124.328125 133.390625 120.464844 136.75 C 120.714844 136.445312 120.941406 136.132812 121.195312 135.832031 C 126.097656 130.042969 132.515625 124.976562 140.5625 120.882812 Z M 220.257812 122.167969 C 223.304688 122.777344 226.277344 123.480469 229.136719 124.308594 C 229.34375 124.371094 229.535156 124.445312 229.738281 124.507812 C 229.546875 125.464844 229.164062 126.363281 228.585938 127.222656 C 225.949219 125.464844 223.171875 123.785156 220.257812 122.167969 Z M 238.921875 122.996094 C 245.117188 126.664062 250.230469 130.976562 254.296875 135.792969 C 255.0625 136.699219 255.789062 137.625 256.484375 138.566406 C 257.109375 139.414062 257.699219 140.277344 258.269531 141.152344 C 254.46875 136.445312 249.371094 132.578125 243.355469 129.472656 C 242.183594 127.375 240.878906 125.378906 239.40625 123.53125 C 239.253906 123.339844 239.074219 123.179688 238.921875 122.996094 Z M 230.121094 124.625 C 234.765625 126.03125 239.121094 127.734375 243.074219 129.769531 C 245.523438 134.183594 247.324219 139.125 248.523438 144.441406 C 243.121094 138.335938 236.605469 132.605469 228.910156 127.4375 C 229.507812 126.554688 229.917969 125.621094 230.125 124.625 Z M 145.773438 125.328125 C 145.859375 125.65625 145.953125 125.988281 146.089844 126.304688 C 146.761719 127.898438 148.007812 129.320312 149.707031 130.589844 C 151.007812 131.5625 152.640625 132.421875 154.425781 133.214844 C 146.5625 141.402344 140.332031 150.496094 135.542969 159.972656 C 135.164062 160.09375 134.765625 160.195312 134.390625 160.320312 C 133.402344 160.644531 132.480469 161.015625 131.523438 161.367188 C 131.183594 150.820312 132.296875 140.933594 135.128906 132.59375 C 138.398438 130.035156 141.949219 127.609375 145.773438 125.328125 Z M 144.433594 125.671875 C 141.222656 127.640625 138.207031 129.710938 135.398438 131.882812 C 135.847656 130.613281 136.339844 129.382812 136.875 128.191406 C 137.4375 127.976562 137.972656 127.753906 138.550781 127.546875 C 140.425781 126.882812 142.40625 126.265625 144.433594 125.671875 Z M 228.683594 127.746094 C 236.574219 133.039062 243.21875 138.929688 248.6875 145.203125 C 249.953125 151.121094 250.441406 157.496094 250.304688 164.097656 C 249.675781 163.832031 249.09375 163.546875 248.441406 163.289062 C 243.519531 161.34375 237.984375 159.699219 232.09375 158.292969 C 227.914062 150.164062 222.707031 142.285156 216.414062 134.902344 C 218.902344 134.132812 221.183594 133.253906 223.105469 132.238281 C 225.542969 130.949219 227.441406 129.445312 228.683594 127.746094 Z M 136.351562 128.386719 C 135.789062 129.671875 135.265625 130.984375 134.796875 132.355469 C 126.710938 138.710938 120.296875 145.859375 115.441406 153.445312 C 114.5 150.617188 114.445312 147.550781 115.449219 144.214844 C 115.515625 144.023438 115.640625 143.839844 115.71875 143.652344 C 116.609375 142.101562 117.589844 140.585938 118.652344 139.109375 C 122.332031 135.039062 128.523438 131.394531 136.355469 128.386719 Z M 243.691406 130.066406 C 251.011719 133.9375 256.910156 138.957031 260.671875 145.261719 C 261.703125 149.921875 260.742188 154.042969 258.21875 157.683594 C 255.644531 153.351562 252.605469 149.128906 249.074219 145.0625 C 247.910156 139.640625 246.136719 134.589844 243.695312 130.066406 Z M 213.773438 132.445312 C 214.449219 133.191406 215.101562 133.949219 215.753906 134.707031 C 215.207031 134.871094 214.621094 135.007812 214.050781 135.160156 C 213.96875 134.234375 213.871094 133.339844 213.773438 132.445312 Z M 134.582031 133.039062 C 131.851562 141.351562 130.78125 151.113281 131.132812 161.511719 C 128.871094 162.347656 126.699219 163.234375 124.636719 164.199219 C 122.046875 162.472656 119.886719 160.59375 118.261719 158.550781 C 117.09375 157.085938 116.210938 155.535156 115.609375 153.910156 C 120.367188 146.410156 126.652344 139.34375 134.582031 133.039062 Z M 154.800781 133.382812 C 159.15625 135.257812 164.710938 136.621094 170.875 137.480469 C 170.816406 139.132812 170.765625 140.816406 170.738281 142.546875 C 169.535156 146.230469 168.433594 150.050781 167.4375 153.980469 C 156.230469 154.964844 145.511719 156.882812 136.070312 159.816406 C 140.835938 150.457031 147.015625 141.472656 154.804688 133.382812 Z M 216.019531 135.03125 C 222.257812 142.332031 227.421875 150.125 231.582031 158.167969 C 226.21875 156.90625 220.5625 155.855469 214.679688 155.066406 C 214.792969 148.121094 214.589844 141.558594 214.078125 135.566406 C 214.734375 135.390625 215.394531 135.222656 216.019531 135.03125 Z M 213.695312 135.664062 C 214.199219 141.613281 214.394531 148.125 214.285156 155.015625 C 209.21875 154.347656 204.015625 153.871094 198.746094 153.566406 C 197.871094 148.402344 196.910156 143.304688 195.835938 138.351562 C 202.265625 137.945312 208.390625 137.039062 213.695312 135.664062 Z M 171.269531 137.53125 L 172.382812 137.679688 C 171.953125 138.859375 171.570312 140.097656 171.160156 141.3125 C 171.1875 140.019531 171.226562 138.777344 171.269531 137.53125 Z M 172.796875 137.726562 C 176.753906 138.203125 180.882812 138.507812 185.078125 138.585938 C 188.535156 138.652344 192.015625 138.574219 195.433594 138.371094 C 196.503906 143.316406 197.46875 148.390625 198.339844 153.542969 C 196.484375 153.441406 194.625 153.328125 192.753906 153.269531 C 190.179688 153.1875 187.597656 153.148438 185.019531 153.160156 C 180.386719 153.175781 175.765625 153.347656 171.203125 153.664062 C 171.140625 149.878906 171.085938 146.113281 171.140625 142.59375 C 171.679688 140.949219 172.21875 139.3125 172.796875 137.726562 Z M 115.628906 142.910156 C 115.554688 143.074219 115.46875 143.234375 115.402344 143.394531 C 110.921875 151.132812 108.542969 159.730469 107.941406 168.683594 C 106.523438 172.636719 105.457031 176.636719 104.75 180.660156 C 103.832031 182.265625 103.097656 183.960938 102.542969 185.722656 C 102.914062 170.007812 107.652344 155.355469 115.628906 142.914062 Z M 170.726562 143.820312 C 170.691406 146.976562 170.753906 150.332031 170.808594 153.695312 C 169.820312 153.761719 168.839844 153.855469 167.859375 153.941406 C 168.742188 150.480469 169.6875 147.089844 170.726562 143.820312 Z M 114.753906 145.417969 C 114.074219 148.441406 114.238281 151.269531 115.167969 153.882812 C 112.414062 158.246094 110.179688 162.75 108.433594 167.339844 C 109.113281 159.632812 111.164062 152.21875 114.753906 145.417969 Z M 249.238281 145.824219 C 252.609375 149.761719 255.511719 153.851562 257.988281 158.039062 C 257.609375 158.558594 257.199219 159.066406 256.757812 159.566406 C 255.21875 161.308594 253.234375 162.902344 250.992188 164.394531 L 250.695312 164.269531 C 250.839844 157.84375 250.410156 151.621094 249.238281 145.824219 Z M 261.25 146.367188 C 265.6875 155.1875 267.609375 165.003906 267.4375 175.117188 C 267.066406 174.710938 266.695312 174.300781 266.285156 173.902344 C 266 173.625 265.636719 173.367188 265.332031 173.09375 C 263.617188 168.003906 261.324219 162.964844 258.441406 158.058594 C 260.871094 154.613281 261.90625 150.703125 261.25 146.367188 Z M 262.363281 147.738281 C 268.578125 159.042969 272.21875 171.921875 272.5625 185.59375 C 272.175781 181.960938 270.523438 178.597656 267.824219 175.523438 C 268.039062 165.804688 266.347656 156.332031 262.363281 147.738281 Z M 185.011719 153.566406 C 187.589844 153.554688 190.167969 153.582031 192.738281 153.664062 C 194.632812 153.722656 196.523438 153.832031 198.40625 153.941406 C 199.699219 161.613281 200.714844 169.441406 201.578125 177.242188 C 196.699219 177.558594 191.734375 177.695312 186.777344 177.65625 C 181.851562 177.617188 176.933594 177.398438 172.113281 177.015625 C 171.773438 171.832031 171.507812 166.699219 171.335938 161.699219 C 171.242188 159.070312 171.238281 156.613281 171.195312 154.070312 C 175.757812 153.753906 180.378906 153.582031 185.011719 153.566406 Z M 198.800781 153.960938 C 204.050781 154.265625 209.226562 154.753906 214.273438 155.421875 C 214.238281 157.457031 214.191406 159.511719 214.105469 161.601562 C 213.910156 166.335938 213.585938 171.199219 213.148438 176.105469 C 209.5 176.574219 205.769531 176.949219 201.972656 177.203125 C 201.113281 169.417969 200.089844 161.621094 198.800781 153.960938 Z M 170.800781 154.097656 C 170.847656 156.636719 170.847656 159.09375 170.941406 161.71875 C 171.113281 166.703125 171.371094 171.820312 171.710938 176.984375 C 168.890625 176.753906 166.125 176.445312 163.390625 176.097656 C 164.289062 170.222656 165.359375 164.398438 166.652344 158.757812 C 166.996094 157.269531 167.378906 155.820312 167.746094 154.355469 C 168.765625 154.269531 169.777344 154.171875 170.800781 154.097656 Z M 115.347656 154.324219 C 115.960938 155.890625 116.816406 157.390625 117.941406 158.796875 C 119.558594 160.824219 121.679688 162.691406 124.207031 164.394531 C 117.664062 167.507812 112.167969 171.28125 108.222656 175.800781 C 108.140625 173.421875 108.175781 171.0625 108.332031 168.722656 C 110.097656 163.808594 112.433594 158.988281 115.351562 154.324219 Z M 167.335938 154.394531 C 166.976562 155.816406 166.601562 157.222656 166.269531 158.667969 C 164.972656 164.320312 163.898438 170.152344 163 176.035156 C 152.066406 174.617188 141.949219 172.28125 133.855469 168.976562 C 133.269531 168.738281 132.757812 168.464844 132.191406 168.21875 C 133.28125 165.550781 134.5 162.914062 135.816406 160.296875 C 145.277344 157.328125 156.054688 155.394531 167.335938 154.394531 Z M 214.667969 155.46875 C 220.644531 156.273438 226.390625 157.339844 231.824219 158.628906 C 233.886719 162.65625 235.679688 166.730469 237.246094 170.832031 C 230.265625 173.183594 222.199219 174.925781 213.542969 176.058594 C 213.976562 171.171875 214.308594 166.328125 214.5 161.613281 C 214.585938 159.535156 214.632812 157.496094 214.667969 155.472656 Z M 258.199219 158.394531 C 260.917969 163.046875 263.113281 167.808594 264.78125 172.628906 C 261.28125 169.621094 256.753906 166.933594 251.417969 164.582031 C 253.589844 163.117188 255.527344 161.550781 257.042969 159.835938 C 257.457031 159.367188 257.835938 158.878906 258.195312 158.394531 Z M 232.335938 158.757812 C 238.082031 160.140625 243.488281 161.757812 248.292969 163.65625 C 248.992188 163.933594 249.617188 164.238281 250.292969 164.523438 C 250.289062 164.648438 250.296875 164.765625 250.292969 164.890625 C 247.421875 166.710938 244.089844 168.347656 240.339844 169.777344 C 239.476562 170.105469 238.535156 170.398438 237.628906 170.707031 C 236.097656 166.691406 234.34375 162.699219 232.339844 158.757812 Z M 135.285156 160.457031 C 134.070312 162.890625 132.945312 165.347656 131.925781 167.824219 C 131.75 165.789062 131.601562 163.769531 131.53125 161.78125 C 132.523438 161.417969 133.480469 161.03125 134.507812 160.695312 C 134.761719 160.609375 135.03125 160.539062 135.285156 160.457031 Z M 131.136719 161.929688 C 131.210938 163.898438 131.359375 165.902344 131.53125 167.910156 C 129.175781 166.839844 126.96875 165.703125 125.046875 164.457031 C 126.988281 163.554688 129.019531 162.710938 131.136719 161.929688 Z M 124.59375 164.652344 C 126.644531 166 129.023438 167.210938 131.5625 168.355469 C 131.570312 168.441406 131.574219 168.527344 131.582031 168.613281 C 125.894531 182.71875 123.359375 197.3125 123.695312 210.839844 C 120.621094 209.511719 117.855469 208.03125 115.359375 206.445312 C 112.707031 200.179688 110.679688 193.75 109.484375 187.300781 C 108.808594 183.652344 108.398438 180 108.242188 176.382812 C 112.203125 171.722656 117.835938 167.839844 124.59375 164.652344 Z M 251.035156 164.851562 C 256.695312 167.320312 261.457031 170.15625 265.019531 173.339844 C 265.871094 175.882812 266.570312 178.433594 267.140625 180.992188 C 266.914062 183.386719 266.578125 185.789062 266.136719 188.191406 C 265.152344 193.523438 263.597656 198.839844 261.632812 204.058594 C 258.375 206.4375 254.546875 208.601562 250.121094 210.484375 C 248.648438 209.554688 247.078125 208.667969 245.371094 207.839844 C 245.257812 204.824219 245.011719 201.765625 244.632812 198.667969 C 247.242188 190.5625 249.121094 182.304688 250.0625 174.21875 C 250.417969 171.140625 250.601562 168.105469 250.691406 165.097656 C 250.816406 165.019531 250.917969 164.929688 251.039062 164.851562 Z M 250.289062 165.382812 C 250.191406 168.285156 250.011719 171.210938 249.667969 174.179688 C 248.761719 181.960938 246.996094 189.914062 244.53125 197.726562 C 243.386719 188.976562 241.136719 179.980469 237.773438 171.070312 C 238.679688 170.761719 239.625 170.472656 240.492188 170.144531 C 244.15625 168.742188 247.445312 167.15625 250.289062 165.382812 Z M 132.039062 168.574219 C 132.609375 168.824219 133.125 169.101562 133.714844 169.34375 C 141.851562 172.664062 151.992188 175.007812 162.945312 176.433594 C 161.777344 184.144531 160.957031 191.9375 160.460938 199.59375 C 153.039062 200.65625 146.050781 202.148438 139.851562 204.097656 C 135.886719 192.695312 133.160156 180.8125 132.039062 169.421875 C 132.015625 169.175781 132.011719 168.9375 131.988281 168.691406 Z M 131.644531 169.472656 C 132.769531 180.890625 135.496094 192.792969 139.46875 204.214844 C 137.34375 204.894531 135.289062 205.605469 133.371094 206.386719 C 129.960938 207.777344 126.90625 209.34375 124.273438 211.066406 L 124.097656 211 C 123.738281 197.707031 126.15625 183.367188 131.644531 169.46875 Z M 107.84375 170.101562 C 107.75 172.132812 107.75 174.1875 107.835938 176.246094 C 106.890625 177.363281 106.0625 178.53125 105.3125 179.738281 C 105.925781 176.507812 106.769531 173.289062 107.84375 170.101562 Z M 237.390625 171.199219 C 240.855469 180.367188 243.121094 189.621094 244.230469 198.609375 C 243.410156 201.15625 242.503906 203.675781 241.53125 206.179688 C 241.054688 205.988281 240.621094 205.773438 240.132812 205.589844 C 231.828125 202.417969 221.636719 200.238281 210.707031 198.972656 C 211.890625 191.527344 212.839844 183.945312 213.515625 176.460938 C 222.226562 175.328125 230.355469 173.570312 237.394531 171.199219 Z M 265.558594 173.796875 C 265.699219 173.925781 265.875 174.046875 266.011719 174.179688 C 266.515625 174.667969 266.984375 175.167969 267.429688 175.671875 C 267.398438 176.992188 267.335938 178.3125 267.234375 179.640625 C 266.761719 177.6875 266.191406 175.738281 265.558594 173.796875 Z M 267.8125 176.125 C 270.832031 179.6875 272.4375 183.617188 272.257812 187.886719 C 272.003906 190.894531 270.976562 193.695312 269.3125 196.296875 C 269.253906 191.230469 268.65625 186.097656 267.519531 180.972656 C 267.671875 179.355469 267.765625 177.734375 267.8125 176.125 Z M 163.332031 176.492188 C 166.09375 176.84375 168.890625 177.148438 171.738281 177.378906 C 172.195312 184.320312 172.835938 191.296875 173.550781 198.203125 C 169.222656 198.507812 164.980469 198.957031 160.847656 199.535156 C 161.34375 191.917969 162.171875 184.164062 163.332031 176.492188 Z M 213.109375 176.511719 C 212.4375 183.960938 211.492188 191.511719 210.308594 198.921875 C 208.1875 198.683594 206.039062 198.480469 203.863281 198.3125 C 203.433594 191.53125 202.777344 184.578125 202.011719 177.597656 C 205.78125 177.34375 209.484375 176.972656 213.109375 176.511719 Z M 107.847656 176.847656 C 108.019531 180.335938 108.4375 183.855469 109.089844 187.371094 C 110.257812 193.671875 112.222656 199.953125 114.777344 206.082031 C 112.832031 204.808594 111.015625 203.488281 109.496094 202.054688 C 107.074219 199.769531 105.242188 197.277344 104.054688 194.589844 C 103.964844 190.011719 104.3125 185.390625 105.117188 180.785156 C 105.90625 179.414062 106.816406 178.109375 107.847656 176.847656 Z M 172.144531 177.417969 C 176.957031 177.800781 181.863281 178.015625 186.777344 178.050781 C 191.746094 178.089844 196.722656 177.953125 201.617188 177.636719 C 202.382812 184.59375 203.027344 191.523438 203.460938 198.28125 C 197.863281 197.855469 192.148438 197.636719 186.433594 197.679688 C 182.242188 197.710938 178.070312 197.902344 173.945312 198.183594 C 173.234375 191.296875 172.601562 184.34375 172.140625 177.421875 Z M 104.546875 181.871094 C 103.925781 185.792969 103.628906 189.722656 103.652344 193.621094 C 102.894531 191.609375 102.488281 189.492188 102.496094 187.253906 C 102.496094 187.238281 102.496094 187.226562 102.496094 187.214844 C 102.496094 187.210938 102.496094 187.207031 102.496094 187.203125 C 102.496094 187.199219 102.496094 187.195312 102.496094 187.195312 C 102.972656 185.335938 103.675781 183.566406 104.546875 181.871094 Z M 267.371094 182.109375 C 268.390625 187.042969 268.921875 191.988281 268.9375 196.859375 C 267.613281 198.796875 265.945312 200.625 263.929688 202.339844 C 263.414062 202.777344 262.792969 203.179688 262.234375 203.601562 C 264.097656 198.558594 265.5625 193.421875 266.511719 188.269531 C 266.890625 186.214844 267.148438 184.160156 267.371094 182.109375 Z M 272.601562 188.28125 C 272.511719 201.96875 269.078125 214.878906 263.09375 226.273438 C 266.296875 219.207031 268.328125 211.539062 269.035156 203.582031 C 269.230469 201.398438 269.328125 199.199219 269.320312 196.980469 C 271.132812 194.296875 272.273438 191.398438 272.601562 188.28125 Z M 102.585938 191.488281 C 102.839844 192.578125 103.210938 193.640625 103.660156 194.667969 C 103.707031 196.839844 103.835938 199 104.074219 201.144531 C 104.53125 205.257812 105.363281 209.304688 106.507812 213.25 C 104.273438 206.339844 102.925781 199.042969 102.585938 191.488281 Z M 104.09375 195.617188 C 105.304688 198.027344 107.027344 200.273438 109.21875 202.339844 C 110.878906 203.90625 112.875 205.34375 115.023438 206.714844 C 116.25 209.601562 117.589844 212.449219 119.09375 215.246094 C 118.558594 215.792969 118.050781 216.351562 117.597656 216.921875 C 114.527344 220.773438 113.292969 225.234375 114.382812 230.222656 C 109.003906 221.394531 105.617188 211.445312 104.46875 201.105469 C 104.265625 199.289062 104.15625 197.453125 104.09375 195.617188 Z M 268.914062 197.589844 C 268.898438 199.589844 268.820312 201.574219 268.644531 203.542969 C 267.804688 212.964844 265.113281 221.984375 260.792969 230.066406 C 261.824219 224.699219 260.265625 219.976562 256.742188 215.957031 C 258.742188 212.160156 260.457031 208.25 261.953125 204.285156 C 262.699219 203.738281 263.496094 203.210938 264.171875 202.636719 C 266.03125 201.054688 267.625 199.375 268.914062 197.589844 Z M 186.425781 198.074219 C 192.160156 198.03125 197.882812 198.25 203.496094 198.675781 C 203.972656 206.246094 204.179688 213.46875 204.246094 220.410156 C 198.179688 220.890625 192.007812 221.167969 185.835938 221.167969 C 182.808594 221.167969 179.792969 221.097656 176.789062 220.980469 C 175.71875 213.859375 174.792969 206.296875 173.988281 198.578125 C 178.097656 198.296875 182.253906 198.105469 186.425781 198.074219 Z M 173.585938 198.597656 C 174.386719 206.304688 175.316406 213.84375 176.382812 220.960938 C 170.921875 220.738281 165.535156 220.316406 160.289062 219.707031 C 160.289062 219.511719 160.273438 219.328125 160.269531 219.136719 C 160.203125 212.964844 160.40625 206.507812 160.824219 199.941406 C 164.972656 199.355469 169.234375 198.902344 173.585938 198.597656 Z M 203.890625 198.714844 C 206.035156 198.886719 208.15625 199.082031 210.253906 199.320312 C 209.097656 206.523438 207.695312 213.5625 206.117188 220.25 L 204.636719 220.378906 C 204.570312 213.460938 204.363281 206.257812 203.890625 198.714844 Z M 210.640625 199.367188 C 221.550781 200.628906 231.722656 202.800781 239.988281 205.953125 C 240.476562 206.140625 240.902344 206.351562 241.378906 206.546875 C 240.289062 209.320312 239.113281 212.050781 237.847656 214.742188 C 228.433594 217.398438 217.710938 219.210938 206.53125 220.222656 C 208.101562 213.554688 209.488281 206.542969 210.640625 199.367188 Z M 244.324219 199.554688 C 244.636719 202.289062 244.847656 204.984375 244.953125 207.652344 C 243.984375 207.191406 242.929688 206.765625 241.890625 206.339844 C 242.761719 204.09375 243.570312 201.835938 244.324219 199.554688 Z M 160.417969 200 C 160.003906 206.542969 159.808594 212.980469 159.878906 219.132812 C 159.878906 219.3125 159.882812 219.480469 159.886719 219.65625 C 154.785156 219.054688 149.84375 218.269531 145.125 217.296875 C 143.226562 213.128906 141.503906 208.847656 139.96875 204.472656 C 146.117188 202.542969 153.054688 201.054688 160.417969 200 Z M 139.585938 204.582031 C 141.09375 208.878906 142.785156 213.089844 144.640625 217.1875 C 138.773438 215.964844 133.234375 214.488281 128.273438 212.6875 C 127.035156 212.238281 125.890625 211.742188 124.722656 211.253906 C 127.277344 209.605469 130.210938 208.097656 133.503906 206.753906 C 135.417969 205.972656 137.464844 205.257812 139.585938 204.582031 Z M 261.34375 204.75 C 259.917969 208.445312 258.308594 212.09375 256.445312 215.640625 C 254.832031 213.867188 252.792969 212.246094 250.472656 210.742188 C 254.59375 208.96875 258.222656 206.960938 261.34375 204.75 Z M 241.742188 206.703125 C 242.839844 207.15625 243.957031 207.597656 244.972656 208.085938 C 245.027344 209.546875 245.054688 210.996094 245.042969 212.429688 L 244.167969 212.765625 C 242.304688 213.410156 240.359375 214.011719 238.371094 214.582031 C 239.578125 211.996094 240.699219 209.367188 241.742188 206.703125 Z M 115.597656 207.070312 C 118.042969 208.582031 120.730469 209.984375 123.699219 211.253906 C 123.699219 211.316406 123.695312 211.382812 123.699219 211.441406 C 122.074219 212.546875 120.632812 213.71875 119.382812 214.957031 C 117.996094 212.375 116.746094 209.734375 115.597656 207.070312 Z M 245.382812 208.304688 C 246.910156 209.050781 248.347656 209.832031 249.679688 210.664062 C 248.324219 211.230469 246.886719 211.757812 245.441406 212.28125 C 245.449219 210.964844 245.425781 209.640625 245.382812 208.304688 Z M 250.0625 210.929688 C 252.5 212.488281 254.609375 214.183594 256.261719 216.023438 C 252.386719 223.320312 247.582031 230.175781 242.121094 236.34375 C 243.859375 230.511719 244.949219 224.125 245.332031 217.367188 C 245.421875 215.839844 245.417969 214.269531 245.433594 212.707031 C 247.015625 212.136719 248.585938 211.554688 250.0625 210.929688 Z M 124.316406 211.503906 C 125.574219 212.027344 126.816406 212.566406 128.152344 213.050781 C 133.210938 214.890625 138.859375 216.394531 144.84375 217.632812 C 146.460938 221.171875 148.164062 224.640625 150.019531 227.953125 C 152.757812 232.84375 155.769531 237.410156 158.976562 241.625 C 154.601562 242.964844 150.945312 244.609375 148.453125 246.574219 C 147.933594 246.980469 147.488281 247.410156 147.074219 247.847656 C 138.820312 241.488281 131.542969 233.636719 125.550781 224.941406 C 124.773438 220.863281 124.277344 216.617188 124.101562 212.242188 C 124.09375 212.054688 124.105469 211.859375 124.101562 211.671875 C 124.179688 211.617188 124.238281 211.554688 124.316406 211.503906 Z M 123.707031 211.964844 C 123.710938 212.0625 123.703125 212.164062 123.707031 212.261719 C 123.871094 216.359375 124.335938 220.328125 125.027344 224.171875 C 123.082031 221.289062 121.242188 218.351562 119.597656 215.3125 C 120.777344 214.136719 122.179688 213.027344 123.707031 211.964844 Z M 245.042969 212.855469 C 245.023438 214.359375 245.027344 215.875 244.941406 217.347656 C 244.542969 224.414062 243.34375 231.046875 241.464844 237.074219 C 240.535156 238.101562 239.632812 239.160156 238.664062 240.144531 C 235.632812 243.234375 232.382812 246.054688 229.007812 248.65625 C 227.746094 246.257812 225.21875 244.285156 221.84375 242.703125 C 221.5 242.542969 221.101562 242.410156 220.738281 242.257812 C 223.660156 238.890625 226.429688 235.292969 228.988281 231.457031 C 232.410156 226.324219 235.445312 220.796875 238.144531 215.074219 C 240.261719 214.472656 242.324219 213.824219 244.300781 213.140625 C 244.558594 213.050781 244.789062 212.945312 245.042969 212.855469 Z M 237.640625 215.203125 C 234.984375 220.800781 232.003906 226.210938 228.652344 231.238281 C 226.078125 235.097656 223.292969 238.71875 220.355469 242.101562 C 216 240.316406 210.480469 239.078125 204.371094 238.359375 C 204.542969 234.90625 204.664062 231.3125 204.707031 227.507812 C 205.167969 225.789062 205.628906 224.066406 206.066406 222.285156 C 206.199219 221.742188 206.320312 221.171875 206.449219 220.625 C 217.570312 219.628906 228.238281 217.832031 237.640625 215.203125 Z M 119.300781 215.601562 C 121.074219 218.867188 123.054688 222.042969 125.175781 225.128906 C 126.664062 232.878906 129.265625 239.953125 132.832031 246.058594 C 127.859375 243.910156 123.6875 241.484375 120.59375 238.84375 C 118.554688 236.421875 116.703125 233.875 115.023438 231.21875 C 113.507812 225.886719 114.679688 221.226562 117.914062 217.171875 C 118.339844 216.636719 118.804688 216.113281 119.300781 215.601562 Z M 256.542969 216.339844 C 260.035156 220.382812 261.527344 225.058594 260.335938 230.460938 C 255.546875 238.492188 247.246094 244.394531 237 248.539062 C 238.910156 245.117188 240.523438 241.363281 241.800781 237.300781 C 247.511719 230.96875 252.519531 223.894531 256.542969 216.339844 Z M 145.339844 217.742188 C 150 218.691406 154.875 219.460938 159.90625 220.054688 C 160.019531 227.558594 160.507812 234.605469 161.332031 240.964844 C 160.675781 241.140625 160.023438 241.320312 159.390625 241.507812 C 156.15625 237.273438 153.121094 232.679688 150.363281 227.753906 C 148.566406 224.542969 146.914062 221.167969 145.339844 217.742188 Z M 160.308594 220.101562 C 165.566406 220.710938 170.96875 221.136719 176.441406 221.355469 C 176.519531 221.886719 176.585938 222.46875 176.667969 222.996094 C 177.492188 228.332031 178.382812 233.355469 179.328125 238.03125 C 173.011719 238.546875 166.96875 239.496094 161.726562 240.855469 C 160.910156 234.546875 160.421875 227.550781 160.308594 220.101562 Z M 206.035156 220.664062 C 205.914062 221.167969 205.800781 221.695312 205.679688 222.195312 C 205.367188 223.476562 205.03125 224.699219 204.703125 225.949219 C 204.714844 224.28125 204.660156 222.503906 204.644531 220.785156 Z M 204.25 220.8125 C 204.269531 222.929688 204.339844 225.140625 204.320312 227.171875 C 204.320312 227.265625 204.3125 227.34375 204.308594 227.4375 C 203.308594 231.148438 202.25 234.683594 201.128906 238.03125 C 197.085938 237.683594 192.875 237.523438 188.632812 237.578125 C 186.808594 237.601562 184.984375 237.660156 183.171875 237.757812 C 182.015625 237.816406 180.875 237.914062 179.730469 238.003906 C 178.785156 233.320312 177.890625 228.28125 177.0625 222.9375 C 176.984375 222.433594 176.921875 221.882812 176.84375 221.375 C 179.832031 221.492188 182.832031 221.5625 185.84375 221.5625 C 192.015625 221.5625 198.183594 221.296875 204.25 220.8125 Z M 125.765625 225.988281 C 131.664062 234.386719 138.777344 241.960938 146.796875 248.144531 C 146.160156 248.863281 145.667969 249.613281 145.339844 250.402344 C 142.867188 249.707031 140.457031 248.984375 138.203125 248.183594 C 136.542969 247.59375 134.957031 246.96875 133.433594 246.328125 C 129.894531 240.40625 127.308594 233.527344 125.765625 225.984375 Z M 204.261719 229.214844 C 204.207031 232.359375 204.121094 235.417969 203.976562 238.308594 C 203.167969 238.21875 202.355469 238.136719 201.53125 238.0625 C 202.476562 235.230469 203.402344 232.308594 204.261719 229.214844 Z M 259.566406 232.277344 C 259.304688 232.722656 259.03125 233.167969 258.757812 233.609375 C 255.550781 238.445312 251.871094 242.949219 247.75 247.027344 L 247.691406 247.085938 C 242.402344 251.964844 236.195312 255.984375 229.195312 258.914062 C 232.070312 256.15625 234.542969 252.816406 236.683594 249.089844 C 246.492188 245.203125 254.53125 239.691406 259.566406 232.273438 Z M 188.640625 237.972656 C 192.835938 237.917969 196.996094 238.085938 200.988281 238.425781 C 198.636719 245.402344 196.039062 251.503906 193.246094 256.257812 C 190.289062 256.304688 187.328125 256.269531 184.375 256.171875 C 182.769531 251.410156 181.230469 245.359375 179.8125 238.398438 C 180.9375 238.308594 182.054688 238.210938 183.191406 238.152344 C 185 238.054688 186.824219 237.996094 188.640625 237.972656 Z M 241.140625 238.03125 C 239.863281 241.917969 238.277344 245.503906 236.410156 248.773438 C 234.28125 249.613281 232.085938 250.394531 229.804688 251.085938 C 229.695312 250.375 229.464844 249.699219 229.164062 249.050781 C 232.589844 246.417969 235.878906 243.5625 238.953125 240.429688 C 239.707031 239.660156 240.40625 238.828125 241.140625 238.03125 Z M 179.417969 238.425781 C 180.828125 245.351562 182.355469 251.382812 183.960938 256.160156 C 183.339844 256.136719 182.71875 256.128906 182.097656 256.101562 C 178.886719 255.953125 175.707031 255.691406 172.558594 255.378906 C 168.972656 252.464844 165.5625 249.039062 162.339844 245.21875 C 162.128906 243.949219 161.953125 242.601562 161.777344 241.261719 C 167.015625 239.898438 173.078125 238.945312 179.417969 238.425781 Z M 201.402344 238.457031 C 202.269531 238.535156 203.121094 238.625 203.964844 238.722656 C 203.628906 245.222656 203.0625 251.027344 202.269531 255.863281 C 199.429688 256.0625 196.570312 256.207031 193.695312 256.257812 C 196.488281 251.476562 199.070312 245.394531 201.402344 238.457031 Z M 204.359375 238.773438 C 210.378906 239.484375 215.808594 240.683594 220.089844 242.417969 C 215.628906 247.503906 210.785156 251.976562 205.613281 255.617188 C 204.640625 255.707031 203.660156 255.761719 202.683594 255.832031 C 203.472656 251 204.027344 245.222656 204.359375 238.773438 Z M 120.375 239.1875 L 120.433594 239.238281 C 125.609375 245.34375 131.894531 250.640625 139.199219 254.796875 C 139.78125 255.421875 140.371094 256.03125 140.984375 256.613281 C 143.375 258.902344 146.007812 260.867188 148.867188 262.5 C 137.714844 256.863281 128.003906 248.875 120.375 239.1875 Z M 122.070312 240.519531 C 125.082031 242.75 128.824219 244.792969 133.167969 246.632812 C 134.726562 249.222656 136.429688 251.664062 138.351562 253.851562 C 132.140625 250.175781 126.691406 245.660156 122.070312 240.519531 Z M 161.382812 241.371094 C 161.527344 242.453125 161.671875 243.546875 161.835938 244.589844 C 161.101562 243.703125 160.382812 242.78125 159.667969 241.851562 Z M 159.253906 241.960938 C 160.144531 243.125 161.03125 244.289062 161.953125 245.386719 C 162.488281 248.621094 163.148438 251.589844 163.886719 254.324219 C 160.363281 253.800781 156.921875 253.179688 153.609375 252.46875 C 151.472656 251.109375 149.398438 249.640625 147.371094 248.09375 C 147.765625 247.679688 148.191406 247.269531 148.691406 246.878906 C 151.152344 244.941406 154.835938 243.296875 159.253906 241.960938 Z M 220.472656 242.574219 C 220.867188 242.738281 221.300781 242.894531 221.675781 243.066406 C 225.042969 244.644531 227.488281 246.597656 228.683594 248.921875 C 226.863281 250.3125 225.011719 251.644531 223.105469 252.871094 C 217.773438 254.097656 212.164062 254.988281 206.410156 255.546875 C 211.4375 251.941406 216.132812 247.535156 220.472656 242.574219 Z M 162.496094 246.050781 C 165.453125 249.5 168.574219 252.605469 171.839844 255.3125 C 169.300781 255.050781 166.785156 254.761719 164.320312 254.402344 C 163.621094 251.847656 163.015625 249.0625 162.496094 246.050781 Z M 133.757812 246.898438 C 135.144531 247.472656 136.582031 248.027344 138.074219 248.558594 C 140.324219 249.355469 142.71875 250.085938 145.179688 250.777344 C 144.660156 252.28125 144.722656 253.90625 145.476562 255.617188 C 145.855469 256.476562 146.410156 257.351562 147.140625 258.253906 C 144.472656 257.136719 141.902344 255.890625 139.457031 254.5 C 137.339844 252.222656 135.453125 249.65625 133.757812 246.898438 Z M 147.101562 248.390625 C 148.878906 249.746094 150.703125 251.027344 152.5625 252.238281 C 150.203125 251.714844 147.9375 251.128906 145.722656 250.511719 C 146.035156 249.777344 146.5 249.070312 147.101562 248.390625 Z M 228.851562 249.308594 C 229.121094 249.917969 229.324219 250.542969 229.421875 251.203125 C 229.207031 251.265625 229.007812 251.347656 228.789062 251.410156 C 227.335938 251.832031 225.832031 252.210938 224.328125 252.574219 C 225.871094 251.550781 227.363281 250.4375 228.851562 249.308594 Z M 236.09375 249.316406 C 233.894531 253.058594 231.363281 256.398438 228.417969 259.121094 L 228.121094 259.378906 C 227.695312 259.546875 227.257812 259.691406 226.828125 259.851562 C 229.164062 256.734375 230.097656 253.949219 229.84375 251.480469 C 231.996094 250.832031 234.074219 250.097656 236.09375 249.316406 Z M 145.554688 250.886719 C 148.09375 251.59375 150.707031 252.246094 153.429688 252.832031 C 157.265625 255.273438 161.261719 257.394531 165.394531 259.140625 C 165.984375 260.753906 166.601562 262.265625 167.285156 263.585938 C 160.347656 262.699219 153.902344 260.992188 147.980469 258.597656 C 147.007812 257.511719 146.28125 256.460938 145.839844 255.457031 C 145.117188 253.820312 145.0625 252.300781 145.554688 250.886719 Z M 229.449219 251.609375 C 229.675781 254.054688 228.703125 256.875 226.160156 260.097656 C 218.542969 262.847656 210.046875 264.320312 200.773438 264.226562 C 200.914062 263.777344 201.0625 263.359375 201.195312 262.875 C 208.960938 261 216.386719 257.667969 223.28125 253.238281 C 225.1875 252.796875 227.070312 252.316406 228.898438 251.785156 C 229.085938 251.730469 229.261719 251.664062 229.449219 251.609375 Z M 242.074219 252.140625 C 236.347656 256.871094 229.980469 260.863281 223.125 263.988281 L 223.132812 263.96875 C 223.484375 263.632812 223.785156 263.3125 224.109375 262.984375 C 225.605469 262 227.027344 260.894531 228.375 259.675781 C 233.351562 257.683594 237.921875 255.140625 242.074219 252.140625 Z M 154.523438 253.058594 C 157.589844 253.699219 160.746094 254.269531 163.984375 254.75 C 164.363281 256.125 164.78125 257.402344 165.214844 258.628906 C 161.539062 257.050781 157.964844 255.191406 154.523438 253.058594 Z M 222.175781 253.472656 C 215.628906 257.566406 208.617188 260.648438 201.304688 262.441406 C 201.640625 261.175781 201.953125 259.785156 202.242188 258.300781 C 203.429688 257.578125 204.601562 256.800781 205.757812 255.992188 C 211.40625 255.46875 216.914062 254.636719 222.175781 253.472656 Z M 164.425781 254.816406 C 167.042969 255.195312 169.714844 255.496094 172.410156 255.765625 C 176.765625 259.292969 181.371094 262.085938 186.175781 263.96875 L 185.722656 264.007812 C 178.820312 263.316406 172.113281 261.527344 165.71875 258.835938 C 165.265625 257.574219 164.828125 256.246094 164.429688 254.816406 Z M 140.363281 255.417969 C 142.714844 256.703125 145.171875 257.867188 147.722656 258.90625 C 149.519531 260.910156 152.324219 263.039062 156.039062 265.261719 C 150.40625 263.398438 145.457031 260.351562 141.25 256.328125 C 140.941406 256.035156 140.660156 255.722656 140.363281 255.417969 Z M 173.140625 255.84375 C 176.09375 256.125 179.070312 256.355469 182.078125 256.496094 L 184.089844 256.554688 C 185.105469 259.53125 186.148438 262.011719 187.222656 263.859375 C 187.167969 263.867188 187.109375 263.875 187.054688 263.882812 C 182.207031 262.082031 177.546875 259.347656 173.140625 255.84375 Z M 204.980469 256.050781 C 204.105469 256.652344 203.222656 257.226562 202.328125 257.777344 C 202.425781 257.273438 202.527344 256.769531 202.617188 256.238281 Z M 202.203125 256.269531 C 202.097656 256.886719 201.976562 257.480469 201.867188 258.066406 C 198.035156 260.390625 194.046875 262.257812 189.921875 263.59375 C 189.328125 263.664062 188.738281 263.714844 188.148438 263.773438 L 188.1875 263.734375 C 188.191406 263.726562 188.191406 263.71875 188.199219 263.714844 C 190.03125 261.894531 191.796875 259.503906 193.488281 256.652344 C 196.410156 256.601562 199.3125 256.46875 202.203125 256.269531 Z M 184.503906 256.566406 C 187.339844 256.660156 190.183594 256.695312 193.027344 256.652344 C 191.378906 259.402344 189.675781 261.699219 187.910156 263.445312 L 187.902344 263.457031 L 187.890625 263.457031 C 187.792969 263.570312 187.703125 263.640625 187.605469 263.753906 C 186.554688 261.957031 185.511719 259.511719 184.503906 256.566406 Z M 201.777344 258.589844 C 201.496094 260.007812 201.195312 261.332031 200.871094 262.539062 C 198.425781 263.121094 195.945312 263.550781 193.441406 263.832031 C 192.679688 263.757812 191.914062 263.6875 191.144531 263.59375 C 194.804688 262.316406 198.355469 260.640625 201.777344 258.589844 Z M 148.582031 259.261719 C 154.414062 261.546875 160.742188 263.167969 167.53125 264.007812 C 168.214844 265.269531 168.9375 266.390625 169.710938 267.335938 C 165.445312 267.375 161.460938 266.847656 157.757812 265.804688 C 153.679688 263.5 150.582031 261.300781 148.582031 259.261719 Z M 165.886719 259.347656 C 171.507812 261.683594 177.363281 263.320312 183.390625 264.136719 C 177.949219 264.421875 172.734375 264.246094 167.769531 263.644531 C 167.742188 263.597656 167.714844 263.5625 167.691406 263.515625 C 167.042969 262.277344 166.449219 260.863281 165.886719 259.347656 Z M 227.3125 260.078125 C 226.695312 260.605469 226.0625 261.105469 225.417969 261.582031 C 225.765625 261.1875 226.121094 260.789062 226.425781 260.40625 Z M 225.65625 260.691406 C 225.121094 261.332031 224.527344 261.988281 223.871094 262.65625 C 217.167969 267.054688 209.003906 268.941406 199.53125 267.476562 C 199.722656 267.0625 199.929688 266.699219 200.113281 266.230469 C 200.300781 265.746094 200.464844 265.15625 200.644531 264.613281 C 209.75 264.714844 218.128906 263.324219 225.65625 260.691406 Z M 200.773438 262.972656 C 200.644531 263.429688 200.492188 263.792969 200.359375 264.214844 C 198.710938 264.191406 197.046875 264.125 195.351562 264 C 197.175781 263.738281 198.980469 263.390625 200.773438 262.972656 Z M 190.523438 263.929688 L 190.570312 263.929688 L 191.578125 264.039062 C 190.894531 264.09375 190.210938 264.105469 189.527344 264.136719 C 189.679688 264.089844 189.828125 264.027344 189.980469 263.980469 C 190.164062 263.957031 190.339844 263.953125 190.523438 263.929688 Z M 168.035156 264.078125 C 173.625 264.738281 179.519531 264.871094 185.703125 264.402344 C 186.0625 264.441406 186.421875 264.472656 186.777344 264.503906 C 186.460938 264.582031 186.152344 264.6875 185.832031 264.757812 L 185.824219 264.757812 C 180.265625 266.425781 175.0625 267.234375 170.203125 267.328125 C 169.433594 266.421875 168.71875 265.3125 168.035156 264.078125 Z M 187.960938 264.1875 C 187.941406 264.191406 187.921875 264.203125 187.902344 264.207031 L 187.871094 264.195312 Z M 193.460938 264.226562 C 195.757812 264.445312 198.015625 264.574219 200.230469 264.613281 C 200.066406 265.101562 199.917969 265.644531 199.746094 266.082031 C 199.550781 266.585938 199.332031 266.972656 199.125 267.40625 C 195.851562 266.867188 192.421875 265.933594 188.847656 264.5625 C 190.394531 264.507812 191.933594 264.398438 193.460938 264.226562 Z M 187.675781 264.660156 C 188.910156 266.867188 190.085938 268.589844 191.203125 269.746094 C 191.824219 270.390625 192.433594 270.878906 193.027344 271.21875 C 192.386719 271.246094 191.746094 271.296875 191.105469 271.316406 C 186.773438 271.433594 182.457031 271.292969 178.351562 270.929688 C 181.058594 270.332031 184.019531 268.335938 187.242188 264.78125 Z M 188.175781 264.730469 C 191.933594 266.207031 195.523438 267.199219 198.957031 267.769531 C 198.464844 268.746094 197.949219 269.601562 197.402344 270.179688 C 197.039062 270.5625 196.675781 270.835938 196.296875 271.039062 C 195.492188 271.101562 194.683594 271.132812 193.875 271.175781 C 193.128906 270.902344 192.335938 270.359375 191.488281 269.480469 C 190.453125 268.40625 189.34375 266.777344 188.175781 264.730469 Z M 220.992188 264.789062 C 220.703125 264.953125 220.449219 265.136719 220.144531 265.292969 L 218.628906 265.886719 C 219.433594 265.554688 220.222656 265.183594 220.992188 264.789062 Z M 186.402344 265.007812 C 182.671875 268.949219 179.335938 270.796875 176.441406 270.734375 C 175.945312 270.679688 175.457031 270.625 174.972656 270.566406 C 173.363281 270.175781 171.875 269.195312 170.515625 267.703125 C 175.324219 267.585938 180.457031 266.78125 185.921875 265.144531 L 185.941406 265.136719 Z M 155.378906 265.460938 C 156.109375 265.714844 156.835938 265.960938 157.585938 266.171875 C 157.847656 266.316406 158.058594 266.457031 158.328125 266.605469 C 157.332031 266.246094 156.359375 265.855469 155.378906 265.460938 Z M 217.761719 266.222656 C 213.085938 267.976562 208.214844 269.324219 203.1875 270.25 C 201.203125 270.546875 199.179688 270.789062 197.125 270.960938 C 197.316406 270.808594 197.503906 270.648438 197.6875 270.457031 C 198.292969 269.816406 198.839844 268.890625 199.363281 267.839844 C 206.167969 268.90625 212.328125 268.273438 217.761719 266.222656 Z M 158.9375 266.507812 C 162.394531 267.355469 166.09375 267.777344 170.011719 267.722656 C 171.042969 268.902344 172.15625 269.789062 173.34375 270.367188 C 170.625 269.984375 168.0625 269.488281 165.738281 268.898438 C 165.429688 268.816406 165.125 268.722656 164.820312 268.640625 C 162.777344 268.078125 160.902344 267.449219 159.320312 266.734375 C 159.316406 266.730469 159.316406 266.726562 159.3125 266.722656 C 159.171875 266.648438 159.074219 266.582031 158.9375 266.507812 Z M 158.9375 266.507812 " fill-opacity="1" fill-rule="evenodd"/></g><g fill="#ffffff" fill-opacity="1"><g transform="translate(78.583321, 196.618259)"><g><path d="M 15.757812 0 L 18.230469 0 L 18.230469 -19.660156 L 15.757812 -19.660156 L 15.757812 -11.207031 L 5.335938 -11.207031 L 5.335938 -19.660156 L 2.863281 -19.660156 L 2.863281 0 L 5.335938 0 L 5.335938 -8.847656 L 15.757812 -8.847656 Z M 15.757812 0 "/></g></g></g><g fill="#ffffff" fill-opacity="1"><g transform="translate(101.804761, 196.618259)"><g><path d="M 11.796875 0.363281 C 17.78125 0.363281 21.992188 -3.847656 21.992188 -9.832031 C 21.992188 -15.8125 17.78125 -20.027344 11.796875 -20.027344 C 5.8125 -20.027344 1.628906 -15.8125 1.628906 -9.832031 C 1.628906 -3.847656 5.8125 0.363281 11.796875 0.363281 Z M 4.15625 -9.832031 C 4.15625 -14.410156 7.273438 -17.554688 11.796875 -17.554688 C 16.320312 -17.554688 19.4375 -14.410156 19.4375 -9.832031 C 19.4375 -5.253906 16.320312 -2.105469 11.796875 -2.105469 C 7.273438 -2.105469 4.15625 -5.253906 4.15625 -9.832031 Z M 4.15625 -9.832031 "/></g></g></g><g fill="#ffffff" fill-opacity="1"><g transform="translate(127.525144, 196.618259)"><g><path d="M 2.863281 0 L 5.335938 0 L 5.335938 -15.054688 L 11.851562 -5.222656 L 13.875 -5.222656 L 20.390625 -15.027344 L 20.390625 0 L 22.863281 0 L 22.863281 -19.660156 L 20.558594 -19.660156 L 12.890625 -8.003906 L 5.167969 -19.660156 L 2.863281 -19.660156 Z M 2.863281 0 "/></g></g></g><g fill="#ffffff" fill-opacity="1"><g transform="translate(155.37946, 196.618259)"><g><path d="M 2.863281 0 L 15.109375 0 L 15.109375 -2.304688 L 5.335938 -2.304688 L 5.335938 -8.875 L 14.101562 -8.875 L 14.101562 -11.152344 L 5.335938 -11.152344 L 5.335938 -17.359375 L 14.800781 -17.359375 L 14.800781 -19.660156 L 2.863281 -19.660156 Z M 2.863281 0 "/></g></g></g><g fill="#000000" fill-opacity="1"><g transform="translate(198.669657, 196.769512)"><g><path d="M 2.078125 0 L 15.785156 0 L 15.785156 -5.253906 L 7.75 -5.253906 L 7.75 -19.660156 L 2.078125 -19.660156 Z M 2.078125 0 "/></g></g></g><g fill="#000000" fill-opacity="1"><g transform="translate(215.15556, 196.769512)"><g><path d="M 2.078125 0 L 7.75 0 L 7.75 -19.660156 L 2.078125 -19.660156 Z M 2.078125 0 "/></g></g></g><g fill="#000000" fill-opacity="1"><g transform="translate(224.98532, 196.769512)"><g><path d="M 2.078125 0 L 7.695312 0 L 7.695312 -10.027344 L 15.167969 0 L 19.773438 0 L 19.773438 -19.660156 L 14.183594 -19.660156 L 14.183594 -9.691406 L 6.710938 -19.660156 L 2.078125 -19.660156 Z M 2.078125 0 "/></g></g></g><g fill="#000000" fill-opacity="1"><g transform="translate(246.863547, 196.769512)"><g><path d="M 2.078125 0 L 7.75 0 L 7.75 -7.441406 L 10.222656 -7.441406 L 13.988281 0 L 20.558594 0 L 15.390625 -9.550781 C 15.980469 -10.25 16.515625 -11.179688 16.964844 -12.328125 L 19.886719 -19.660156 L 13.734375 -19.660156 L 11.964844 -14.746094 C 11.375 -13.03125 10.730469 -12.609375 8.707031 -12.609375 L 7.75 -12.609375 L 7.75 -19.660156 L 2.078125 -19.660156 Z M 2.078125 0 "/></g></g></g><g fill="#000000" fill-opacity="1"><g transform="translate(268.095821, 196.769512)"><g><path d="M 2.078125 0 L 15.867188 0 L 15.867188 -4.632812 L 7.695312 -4.632812 L 7.695312 -7.667969 L 14.800781 -7.667969 L 14.800781 -12.21875 L 7.695312 -12.21875 L 7.695312 -15.082031 L 15.558594 -15.082031 L 15.558594 -19.660156 L 2.078125 -19.660156 Z M 2.078125 0 "/></g></g></g><g fill="#000000" fill-opacity="1"><g transform="translate(285.227676, 196.769512)"><g><path d="M 2.078125 0 L 10.421875 0 C 16.769531 0 20.980469 -3.902344 20.980469 -9.832031 C 20.980469 -15.730469 16.769531 -19.660156 10.421875 -19.660156 L 2.078125 -19.660156 Z M 7.75 -5.082031 L 7.75 -14.578125 L 10.25 -14.578125 C 13.257812 -14.578125 15.195312 -12.722656 15.195312 -9.832031 C 15.195312 -6.9375 13.257812 -5.082031 10.25 -5.082031 Z M 7.75 -5.082031 "/></g></g></g></svg>